<svg width="14" height="14" viewBox="0 0 14 14" fill="none" xmlns="http://www.w3.org/2000/svg">
<path d="M6.39454 1.39969C6.57959 1.37922 6.74892 1.28607 6.86529 1.14074C6.98166 0.995413 7.03553 0.809812 7.01505 0.624766C6.99457 0.43972 6.90142 0.270388 6.75609 0.154021C6.61077 0.0376538 6.42517 -0.0162162 6.24012 0.0042617C2.72909 0.392428 0 3.3672 0 6.98072C0 10.8575 3.14252 14 7.01926 14C10.6314 14 13.6054 11.2716 13.9957 7.76337C14.0163 7.57833 13.9625 7.39269 13.8462 7.24729C13.7299 7.1019 13.5606 7.00866 13.3755 6.98809C13.1905 6.96752 13.0049 7.0213 12.8595 7.1376C12.7141 7.2539 12.6208 7.4232 12.6003 7.60825C12.4386 9.03323 11.7379 10.3424 10.6419 11.2673C9.54589 12.1922 8.13756 12.6627 6.70569 12.5825C5.27381 12.5022 3.92689 11.8773 2.94108 10.8357C1.95527 9.7941 1.40527 8.41485 1.40385 6.98072C1.40374 5.59951 1.91267 4.26671 2.83337 3.23711C3.75406 2.20751 5.02191 1.55335 6.39454 1.39969ZM8.96149 0.235898C8.78409 0.191138 8.59622 0.217415 8.43791 0.30913C8.27959 0.400845 8.16335 0.550749 8.11393 0.726911C8.06451 0.903072 8.08583 1.09157 8.17335 1.25224C8.26086 1.41291 8.40765 1.53307 8.58245 1.58711C8.7846 1.6442 8.98161 1.71205 9.17347 1.79067C9.34586 1.86113 9.53917 1.86023 9.71089 1.78816C9.88261 1.71608 10.0187 1.57875 10.0891 1.40636C10.1596 1.23398 10.1587 1.04066 10.0866 0.868938C10.0145 0.697217 9.87721 0.56116 9.70483 0.490698C9.462 0.391951 9.21383 0.306884 8.96149 0.235898ZM10.7739 1.85033C10.8362 1.78244 10.9113 1.72749 10.9949 1.68863C11.0785 1.64977 11.1689 1.62776 11.261 1.62385C11.3531 1.61994 11.4451 1.63421 11.5317 1.66584C11.6183 1.69747 11.6978 1.74585 11.7657 1.80822C11.9145 1.94439 12.057 2.08665 12.1932 2.23499C12.319 2.37219 12.3852 2.55376 12.3772 2.73977C12.3691 2.92577 12.2875 3.10097 12.1503 3.22681C12.0131 3.35266 11.8316 3.41885 11.6456 3.41082C11.4596 3.40279 11.2844 3.3212 11.1585 3.18399C11.0497 3.06545 10.9359 2.95163 10.8174 2.84286C10.7494 2.7806 10.6943 2.70555 10.6553 2.62201C10.6164 2.53847 10.5942 2.44806 10.5902 2.35596C10.5861 2.26386 10.6003 2.17186 10.6318 2.08523C10.6633 1.99859 10.7116 1.91831 10.7739 1.85033ZM6.31733 2.76916C6.5035 2.76916 6.68203 2.84311 6.81367 2.97475C6.94531 3.10638 7.01926 3.28492 7.01926 3.47108V6.98072H9.12504C9.3112 6.98072 9.48974 7.05467 9.62137 7.18631C9.75301 7.31795 9.82696 7.49649 9.82696 7.68265C9.82696 7.86881 9.75301 8.04735 9.62137 8.17899C9.48974 8.31062 9.3112 8.38458 9.12504 8.38458H6.31733C6.13117 8.38458 5.95263 8.31062 5.821 8.17899C5.68936 8.04735 5.61541 7.86881 5.61541 7.68265V3.47108C5.61541 3.28492 5.68936 3.10638 5.821 2.97475C5.95263 2.84311 6.13117 2.76916 6.31733 2.76916ZM12.5926 3.90838C12.7648 3.83794 12.9581 3.83882 13.1297 3.91082C13.3014 3.98282 13.4374 4.12006 13.5079 4.29234C13.6072 4.53606 13.6927 4.78516 13.7641 5.03849C13.7917 5.12804 13.8012 5.22223 13.7919 5.3155C13.7826 5.40877 13.7547 5.49924 13.7099 5.58155C13.665 5.66387 13.6042 5.73637 13.5309 5.79478C13.4576 5.85319 13.3733 5.89633 13.283 5.92165C13.1928 5.94697 13.0984 5.95395 13.0054 5.94219C12.9124 5.93043 12.8227 5.90016 12.7416 5.85318C12.6605 5.80619 12.5896 5.74343 12.5332 5.66861C12.4767 5.59379 12.4358 5.50841 12.4129 5.41753C12.3559 5.21593 12.2877 5.01768 12.2086 4.8237C12.1381 4.65149 12.1389 4.45834 12.2108 4.28671C12.2826 4.11507 12.4197 3.97899 12.5918 3.90838" fill="black"/>
</svg>
