<svg width="16" height="12" viewBox="0 0 16 12" fill="none" xmlns="http://www.w3.org/2000/svg">
<path d="M5 2.00245C4.73478 2.00245 4.48043 2.10781 4.29289 2.29534C4.10536 2.48288 4 2.73723 4 3.00245C4 3.26767 4.10536 3.52202 4.29289 3.70956C4.48043 3.89709 4.73478 4.00245 5 4.00245C5.26522 4.00245 5.51957 3.89709 5.70711 3.70956C5.89464 3.52202 6 3.26767 6 3.00245C6 2.73723 5.89464 2.48288 5.70711 2.29534C5.51957 2.10781 5.26522 2.00245 5 2.00245ZM2.17 2.00245C2.3766 1.41692 2.75974 0.909884 3.2666 0.55124C3.77346 0.192596 4.37909 0 5 0C5.62091 0 6.22654 0.192596 6.7334 0.55124C7.24026 0.909884 7.6234 1.41692 7.83 2.00245H15C15.2652 2.00245 15.5196 2.10781 15.7071 2.29534C15.8946 2.48288 16 2.73723 16 3.00245C16 3.26767 15.8946 3.52202 15.7071 3.70956C15.5196 3.89709 15.2652 4.00245 15 4.00245H7.83C7.6234 4.58798 7.24026 5.09502 6.7334 5.45366C6.22654 5.81231 5.62091 6.0049 5 6.0049C4.37909 6.0049 3.77346 5.81231 3.2666 5.45366C2.75974 5.09502 2.3766 4.58798 2.17 4.00245H1C0.734784 4.00245 0.48043 3.89709 0.292893 3.70956C0.105357 3.52202 0 3.26767 0 3.00245C0 2.73723 0.105357 2.48288 0.292893 2.29534C0.48043 2.10781 0.734784 2.00245 1 2.00245H2.17ZM11 8.00245C10.7348 8.00245 10.4804 8.10781 10.2929 8.29534C10.1054 8.48288 10 8.73723 10 9.00245C10 9.26767 10.1054 9.52202 10.2929 9.70956C10.4804 9.89709 10.7348 10.0025 11 10.0025C11.2652 10.0025 11.5196 9.89709 11.7071 9.70956C11.8946 9.52202 12 9.26767 12 9.00245C12 8.73723 11.8946 8.48288 11.7071 8.29534C11.5196 8.10781 11.2652 8.00245 11 8.00245ZM8.17 8.00245C8.3766 7.41692 8.75974 6.90988 9.2666 6.55124C9.77346 6.1926 10.3791 6 11 6C11.6209 6 12.2265 6.1926 12.7334 6.55124C13.2403 6.90988 13.6234 7.41692 13.83 8.00245H15C15.2652 8.00245 15.5196 8.10781 15.7071 8.29534C15.8946 8.48288 16 8.73723 16 9.00245C16 9.26767 15.8946 9.52202 15.7071 9.70956C15.5196 9.89709 15.2652 10.0025 15 10.0025H13.83C13.6234 10.588 13.2403 11.095 12.7334 11.4537C12.2265 11.8123 11.6209 12.0049 11 12.0049C10.3791 12.0049 9.77346 11.8123 9.2666 11.4537C8.75974 11.095 8.3766 10.588 8.17 10.0025H1C0.734784 10.0025 0.48043 9.89709 0.292893 9.70956C0.105357 9.52202 0 9.26767 0 9.00245C0 8.73723 0.105357 8.48288 0.292893 8.29534C0.48043 8.10781 0.734784 8.00245 1 8.00245H8.17Z" fill="#1A8EB8"/>
</svg>
