<svg width="12" height="12" viewBox="0 0 12 12" fill="none" xmlns="http://www.w3.org/2000/svg">
<path fill-rule="evenodd" clip-rule="evenodd" d="M8.85934 7.9597L11.8175 10.9301C12.0678 11.1814 12.0595 11.5821 11.7994 11.8237C11.677 11.9374 11.5158 12 11.3458 12C11.1663 12 10.9987 11.9311 10.8741 11.8062L7.89342 8.81326C7.04707 9.38749 6.05714 9.68999 5.01834 9.68999C2.25127 9.68999 0 7.51648 0 4.845C0 2.17351 2.25127 0 5.01834 0C7.78542 0 10.0367 2.17351 10.0367 4.845C10.0367 5.98841 9.61995 7.08675 8.85934 7.9597ZM8.72757 4.84496C8.72757 2.87031 7.06366 1.26388 5.01835 1.26388C2.97305 1.26388 1.30914 2.87031 1.30914 4.84496C1.30914 6.81961 2.97305 8.42605 5.01835 8.42605C7.06366 8.42605 8.72757 6.81961 8.72757 4.84496Z" fill="#1D2123"/>
</svg>
