<svg width="18" height="18" viewBox="0 0 18 18" fill="none" xmlns="http://www.w3.org/2000/svg">
<path d="M5 14C5.28333 14 5.521 13.904 5.713 13.712C5.905 13.52 6.00067 13.2827 6 13V8C6 7.71667 5.904 7.47933 5.712 7.288C5.52 7.09667 5.28267 7.00067 5 7C4.71733 6.99933 4.48 7.09533 4.288 7.288C4.096 7.48067 4 7.718 4 8V13C4 13.2833 4.096 13.521 4.288 13.713C4.48 13.905 4.71733 14.0007 5 14ZM9 14C9.28333 14 9.521 13.904 9.713 13.712C9.905 13.52 10.0007 13.2827 10 13V5C10 4.71667 9.904 4.47934 9.712 4.288C9.52 4.09667 9.28266 4.00067 9 4C8.71733 3.99934 8.48 4.09534 8.288 4.288C8.096 4.48067 8 4.718 8 5V13C8 13.2833 8.096 13.521 8.288 13.713C8.48 13.905 8.71733 14.0007 9 14ZM13 14C13.2833 14 13.521 13.904 13.713 13.712C13.905 13.52 14.0007 13.2827 14 13V11C14 10.7167 13.904 10.4793 13.712 10.288C13.52 10.0967 13.2827 10.0007 13 10C12.7173 9.99933 12.48 10.0953 12.288 10.288C12.096 10.4807 12 10.718 12 11V13C12 13.2833 12.096 13.521 12.288 13.713C12.48 13.905 12.7173 14.0007 13 14ZM15 6C14.7167 6 14.4793 5.904 14.288 5.712C14.0967 5.52 14.0007 5.28267 14 5V4H13C12.7167 4 12.4793 3.904 12.288 3.712C12.0967 3.52 12.0007 3.28267 12 3C11.9993 2.71734 12.0953 2.48 12.288 2.288C12.4807 2.096 12.718 2 13 2H14V1C14 0.71667 14.096 0.479337 14.288 0.288003C14.48 0.0966702 14.7173 0.000670115 15 3.44827e-06C15.2827 -0.000663218 15.5203 0.0953369 15.713 0.288003C15.9057 0.48067 16.0013 0.718003 16 1V2H17C17.2833 2 17.521 2.096 17.713 2.288C17.905 2.48 18.0007 2.71734 18 3C17.9993 3.28267 17.9033 3.52034 17.712 3.713C17.5207 3.90567 17.2833 4.00134 17 4H16V5C16 5.28334 15.904 5.521 15.712 5.713C15.52 5.905 15.2827 6.00067 15 6ZM2 18C1.45 18 0.979333 17.8043 0.588 17.413C0.196667 17.0217 0.000666666 16.5507 0 16V2C0 1.45 0.196 0.979337 0.588 0.588003C0.98 0.19667 1.45067 0.000670115 2 3.44827e-06H10C10.2833 3.44827e-06 10.521 0.0960035 10.713 0.288003C10.905 0.480003 11.0007 0.717337 11 1V5C11 5.55 11.196 6.021 11.588 6.413C11.98 6.805 12.4507 7.00067 13 7H17C17.2833 7 17.521 7.096 17.713 7.288C17.905 7.48 18.0007 7.71733 18 8V16C18 16.55 17.8043 17.021 17.413 17.413C17.0217 17.805 16.5507 18.0007 16 18H2Z" fill="#4E85BC"/>
</svg>
