<svg width="40" height="40" viewBox="0 0 40 40" fill="none" xmlns="http://www.w3.org/2000/svg">
<rect width="40" height="40" rx="20" fill="white"/>
<path fill-rule="evenodd" clip-rule="evenodd" d="M12 13.5C12 12.837 12.2586 12.2011 12.7189 11.7322C13.1792 11.2634 13.8036 11 14.4545 11H22.4384C23.0891 11.0006 23.713 11.2644 24.1729 11.7333L29.2816 16.9333C29.5095 17.1656 29.6903 17.4413 29.8135 17.7447C29.9368 18.0481 30.0001 18.3733 30 18.7017V28.5C30 29.163 29.7414 29.7989 29.2811 30.2678C28.8208 30.7366 28.1964 31 27.5455 31H14.4545C13.8036 31 13.1792 30.7366 12.7189 30.2678C12.2586 29.7989 12 29.163 12 28.5V13.5ZM17.3182 16C16.9927 16 16.6805 16.1317 16.4504 16.3661C16.2202 16.6005 16.0909 16.9185 16.0909 17.25C16.0909 17.5815 16.2202 17.8995 16.4504 18.1339C16.6805 18.3683 16.9927 18.5 17.3182 18.5C18.4604 18.5 19.4455 19.1817 19.9069 20.1667H17.3182C16.9927 20.1667 16.6805 20.2984 16.4504 20.5328C16.2202 20.7672 16.0909 21.0851 16.0909 21.4167C16.0909 21.7482 16.2202 22.0661 16.4504 22.3005C16.6805 22.535 16.9927 22.6667 17.3182 22.6667H19.9069C19.4471 23.6517 18.4604 24.3333 17.3182 24.3333C17.0756 24.3336 16.8385 24.407 16.6369 24.5443C16.4353 24.6817 16.2781 24.8769 16.1853 25.1051C16.0925 25.3334 16.0682 25.5846 16.1155 25.8269C16.1628 26.0692 16.2795 26.2919 16.4509 26.4667L18.9055 28.9667C19.1381 29.1875 19.4458 29.3077 19.7638 29.302C20.0817 29.2962 20.3851 29.1651 20.6099 28.936C20.8348 28.707 20.9636 28.398 20.9692 28.0742C20.9748 27.7504 20.8568 27.437 20.64 27.2L19.7122 26.255C20.404 25.8987 21.0113 25.3931 21.4917 24.7734C21.9721 24.1537 22.3142 23.4347 22.494 22.6667H24.6818C25.0073 22.6667 25.3195 22.535 25.5496 22.3005C25.7798 22.0661 25.9091 21.7482 25.9091 21.4167C25.9091 21.0851 25.7798 20.7672 25.5496 20.5328C25.3195 20.2984 25.0073 20.1667 24.6818 20.1667H22.494C22.3577 19.5749 22.123 19.0112 21.8002 18.5H24.6818C25.0073 18.5 25.3195 18.3683 25.5496 18.1339C25.7798 17.8995 25.9091 17.5815 25.9091 17.25C25.9091 16.9185 25.7798 16.6005 25.5496 16.3661C25.3195 16.1317 25.0073 16 24.6818 16H17.3182Z" fill="#93B31A"/>
</svg>
