<svg width="9" height="12" viewBox="0 0 9 12" fill="none" xmlns="http://www.w3.org/2000/svg">
<path d="M2.25 0.375C2.25 0.275544 2.21049 0.180161 2.14016 0.109835C2.06984 0.0395089 1.97446 0 1.875 0C1.77554 0 1.68016 0.0395089 1.60984 0.109835C1.53951 0.180161 1.5 0.275544 1.5 0.375V0.75H1.125C0.826631 0.75 0.540483 0.868526 0.329505 1.0795C0.118526 1.29048 0 1.57663 0 1.875V10.875C0 11.1734 0.118526 11.4595 0.329505 11.6705C0.540483 11.8815 0.826631 12 1.125 12H5.25V9.375C5.25 9.07663 5.36853 8.79048 5.5795 8.5795C5.79048 8.36853 6.07663 8.25 6.375 8.25H9V1.875C9 1.57663 8.88147 1.29048 8.6705 1.0795C8.45952 0.868526 8.17337 0.75 7.875 0.75H7.5V0.375C7.5 0.275544 7.46049 0.180161 7.39017 0.109835C7.31984 0.0395089 7.22446 0 7.125 0C7.02554 0 6.93016 0.0395089 6.85983 0.109835C6.78951 0.180161 6.75 0.275544 6.75 0.375V0.75H4.875V0.375C4.875 0.275544 4.83549 0.180161 4.76517 0.109835C4.69484 0.0395089 4.59946 0 4.5 0C4.40054 0 4.30516 0.0395089 4.23483 0.109835C4.16451 0.180161 4.125 0.275544 4.125 0.375V0.75H2.25V0.375ZM2.25 4.125C2.25 4.02554 2.28951 3.93016 2.35984 3.85984C2.43016 3.78951 2.52554 3.75 2.625 3.75H6.375C6.47446 3.75 6.56984 3.78951 6.64017 3.85984C6.71049 3.93016 6.75 4.02554 6.75 4.125C6.75 4.22446 6.71049 4.31984 6.64017 4.39016C6.56984 4.46049 6.47446 4.5 6.375 4.5H2.625C2.52554 4.5 2.43016 4.46049 2.35984 4.39016C2.28951 4.31984 2.25 4.22446 2.25 4.125ZM2.625 6H6.375C6.47446 6 6.56984 6.03951 6.64017 6.10983C6.71049 6.18016 6.75 6.27554 6.75 6.375C6.75 6.47446 6.71049 6.56984 6.64017 6.64017C6.56984 6.71049 6.47446 6.75 6.375 6.75H2.625C2.52554 6.75 2.43016 6.71049 2.35984 6.64017C2.28951 6.56984 2.25 6.47446 2.25 6.375C2.25 6.27554 2.28951 6.18016 2.35984 6.10983C2.43016 6.03951 2.52554 6 2.625 6ZM2.25 8.625C2.25 8.52554 2.28951 8.43016 2.35984 8.35983C2.43016 8.28951 2.52554 8.25 2.625 8.25H4.125C4.22446 8.25 4.31984 8.28951 4.39017 8.35983C4.46049 8.43016 4.5 8.52554 4.5 8.625C4.5 8.72446 4.46049 8.81984 4.39017 8.89017C4.31984 8.96049 4.22446 9 4.125 9H2.625C2.52554 9 2.43016 8.96049 2.35984 8.89017C2.28951 8.81984 2.25 8.72446 2.25 8.625ZM8.7675 9H6.375C6.27554 9 6.18016 9.03951 6.10983 9.10983C6.03951 9.18016 6 9.27554 6 9.375V11.7675C6.0385 11.7375 6.075 11.705 6.1095 11.67L8.67075 9.1095C8.70575 9.0745 8.7385 9.038 8.7675 9Z" fill="white"/>
</svg>
