<svg width="24" height="19" viewBox="0 0 24 19" fill="none" xmlns="http://www.w3.org/2000/svg">
<path fill-rule="evenodd" clip-rule="evenodd" d="M12 2.37587C11.4484 2.37587 10.9023 2.48337 10.3927 2.69223C9.88316 2.90109 9.42016 3.20722 9.03015 3.59315C8.64015 3.97907 8.33078 4.43723 8.11971 4.94146C7.90864 5.44569 7.8 5.98613 7.8 6.5319C7.8 7.07768 7.90864 7.61812 8.11971 8.12235C8.33078 8.62658 8.64015 9.08474 9.03015 9.47066C9.42016 9.85659 9.88316 10.1627 10.3927 10.3716C10.9023 10.5804 11.4484 10.6879 12 10.6879C13.1139 10.6879 14.1822 10.2501 14.9698 9.47066C15.7575 8.69126 16.2 7.63415 16.2 6.5319C16.2 5.42966 15.7575 4.37255 14.9698 3.59315C14.1822 2.81374 13.1139 2.37587 12 2.37587ZM10.2 11.8754C8.92696 11.8754 7.70606 12.3758 6.80589 13.2665C5.90571 14.1573 5.4 15.3654 5.4 16.6251C5.4 17.255 5.65286 17.859 6.10294 18.3044C6.55303 18.7498 7.16348 19 7.8 19H16.2C16.8365 19 17.447 18.7498 17.8971 18.3044C18.3471 17.859 18.6 17.255 18.6 16.6251C18.6 15.3654 18.0943 14.1573 17.1941 13.2665C16.2939 12.3758 15.073 11.8754 13.8 11.8754H10.2ZM18.384 8.19907C18.7655 6.76149 18.6409 5.23822 18.0309 3.88001C17.4208 2.52181 16.3616 1.40962 15.0276 0.726523C15.5359 0.382779 16.1144 0.153834 16.7221 0.0559005C17.3298 -0.0420333 17.9518 -0.00656087 18.5441 0.159806C19.1364 0.326174 19.6845 0.619367 20.1496 1.01862C20.6147 1.41788 20.9853 1.91343 21.2354 2.47019C21.4854 3.02694 21.6087 3.63129 21.5964 4.24042C21.5842 4.84955 21.4368 5.44858 21.1646 5.99507C20.8924 6.54156 20.5022 7.02216 20.0215 7.40282C19.5407 7.78349 18.9813 8.05492 18.3828 8.19788L18.384 8.19907ZM21 16.6251H21.6C22.2365 16.6251 22.847 16.3749 23.2971 15.9295C23.7471 15.4842 24 14.8801 24 14.2502C24 12.9905 23.4943 11.7824 22.5941 10.8917C21.6939 10.0009 20.473 9.5005 19.2 9.5005H17.88C17.7168 9.81681 17.5278 10.1194 17.3148 10.4053C18.4326 11.024 19.3634 11.9266 20.0112 13.0199C20.659 14.1132 21.0003 15.3577 21 16.6251ZM2.4 4.15703C2.39982 3.40038 2.60839 2.65804 3.00322 2.01006C3.39805 1.36209 3.96415 0.833063 4.64048 0.480048C5.31681 0.127032 6.07771 -0.0365806 6.8411 0.00685444C7.60449 0.0502895 8.34142 0.299124 8.9724 0.726523C7.6371 1.40814 6.57679 2.5202 5.96673 3.87891C5.35667 5.23761 5.23336 6.76162 5.6172 8.19907C4.70016 7.98066 3.8841 7.46316 3.30049 6.72992C2.71688 5.99668 2.39968 5.09038 2.4 4.15703ZM6.12 9.5005H4.8C3.52696 9.5005 2.30606 10.0009 1.40589 10.8917C0.505713 11.7824 0 12.9905 0 14.2502C0 14.8801 0.252856 15.4842 0.702944 15.9295C1.15303 16.3749 1.76348 16.6251 2.4 16.6251H3C2.99968 15.3577 3.34102 14.1132 3.98881 13.0199C4.6366 11.9266 5.56739 11.024 6.6852 10.4053C6.47225 10.1194 6.28322 9.81681 6.12 9.5005Z" fill="#1A8EB8"/>
</svg>
